<?xml version="1.0" encoding="iso-8859-1"?>
<!-- Uploaded to: SVG Repo, www.svgrepo.com, Generator: SVG Repo Mixer Tools -->
<svg version="1.1" id="Layer_1" xmlns="http://www.w3.org/2000/svg" xmlns:xlink="http://www.w3.org/1999/xlink" 
	 viewBox="0 0 512 512" xml:space="preserve">
<g transform="translate(1 1)">
	<path style="fill:#FFDD09;" d="M485.4,109.933H24.6v245.76c0,10.24,7.68,18.773,17.067,18.773h93.867
		c0-70.827,53.76-128,119.467-128s119.467,57.173,119.467,128h93.867c9.387,0,17.067-8.533,17.067-18.773V109.933z"/>
	<path style="fill:#FD9808;" d="M485.4,109.933v245.76c0,10.24-7.68,18.773-17.067,18.773h15.36c10.24,0,18.773-8.533,18.773-18.773
		v-245.76H485.4z"/>
	<path style="fill:#FFFFFF;" d="M24.6,355.693v-245.76H7.533v245.76c0,10.24,8.533,18.773,18.773,18.773h15.36
		C32.28,374.467,24.6,365.933,24.6,355.693"/>
	<path style="fill:#FFDD09;" d="M485.4,109.933H24.6V23.747c0-9.387,6.827-16.213,16.213-16.213H470.04
		c8.533,0,16.213,6.827,16.213,16.213v86.187H485.4z"/>
	<path style="fill:#FFFFFF;" d="M40.813,7.533H23.747c-9.387,0-16.213,6.827-16.213,16.213v86.187H24.6V23.747
		C24.6,14.36,31.427,7.533,40.813,7.533"/>
	<path style="fill:#FD9808;" d="M486.253,7.533h-17.067c8.533,0,16.213,6.827,16.213,16.213v86.187h17.067V23.747
		C502.467,14.36,495.64,7.533,486.253,7.533"/>
	<g>
		<path style="fill:#54C9FD;" d="M84.333,58.733c0,14.507-11.093,25.6-25.6,25.6s-25.6-11.093-25.6-25.6s11.093-25.6,25.6-25.6
			S84.333,44.227,84.333,58.733"/>
		<path style="fill:#54C9FD;" d="M161.133,58.733c0,14.507-11.093,25.6-25.6,25.6s-25.6-11.093-25.6-25.6s11.093-25.6,25.6-25.6
			S161.133,44.227,161.133,58.733"/>
		<path style="fill:#54C9FD;" d="M237.933,58.733c0,14.507-11.093,25.6-25.6,25.6s-25.6-11.093-25.6-25.6s11.093-25.6,25.6-25.6
			S237.933,44.227,237.933,58.733"/>
	</g>
	<path style="fill:#FCC309;" d="M357.4,374.467c0,70.827-51.2,128-115.2,128s-115.2-57.173-115.2-128s51.2-128,115.2-128
		S357.4,303.64,357.4,374.467"/>
	<path style="fill:#FD9808;" d="M255,246.467c-2.56,0-4.267,0-6.827,0c60.587,4.267,109.227,59.733,109.227,128
		s-48.64,123.733-109.227,128c2.56,0,4.267,0,6.827,0c70.827,0,128-57.173,128-128S325.827,246.467,255,246.467"/>
	<path d="M58.733,92.867c-18.773,0-34.133-15.36-34.133-34.133S39.96,24.6,58.733,24.6s34.133,15.36,34.133,34.133
		S77.507,92.867,58.733,92.867z M58.733,41.667c-9.387,0-17.067,7.68-17.067,17.067S49.347,75.8,58.733,75.8S75.8,68.12,75.8,58.733
		S68.12,41.667,58.733,41.667z"/>
	<path d="M135.533,92.867c-18.773,0-34.133-15.36-34.133-34.133S116.76,24.6,135.533,24.6s34.133,15.36,34.133,34.133
		S154.307,92.867,135.533,92.867z M135.533,41.667c-9.387,0-17.067,7.68-17.067,17.067s7.68,17.067,17.067,17.067
		S152.6,68.12,152.6,58.733S144.92,41.667,135.533,41.667z"/>
	<path d="M212.333,92.867c-18.773,0-34.133-15.36-34.133-34.133S193.56,24.6,212.333,24.6s34.133,15.36,34.133,34.133
		S231.107,92.867,212.333,92.867z M212.333,41.667c-9.387,0-17.067,7.68-17.067,17.067s7.68,17.067,17.067,17.067
		S229.4,68.12,229.4,58.733S221.72,41.667,212.333,41.667z"/>
	<path d="M511,118.467H-1v-94.72C-1,10.093,10.093-1,23.747-1h463.36C499.907-1,511,10.093,511,23.747V118.467z M16.067,101.4
		h477.867V23.747c0-4.267-3.413-7.68-7.68-7.68H23.747c-4.267,0-7.68,3.413-7.68,7.68V101.4z"/>
	<path d="M255,511c-75.093,0-136.533-61.44-136.533-136.533S179.907,237.933,255,237.933s136.533,61.44,136.533,136.533
		S330.093,511,255,511z M255,255c-65.707,0-119.467,53.76-119.467,119.467S189.293,493.933,255,493.933
		s119.467-53.76,119.467-119.467S320.707,255,255,255z"/>
	<path d="M240.493,508.44c-40.107-39.253-62.293-86.187-61.44-133.973c0-48.64,21.333-94.72,61.44-133.973l11.947,11.947
		c-36.693,35.84-56.32,77.653-56.32,121.173s19.627,86.187,56.32,122.027L240.493,508.44z"/>
	<path d="M270.36,508.44l-11.947-11.947c36.693-36.693,56.32-78.507,56.32-122.027s-19.627-85.333-56.32-121.173l11.947-11.947
		C310.467,280.6,331.8,326.68,331.8,375.32C331.8,422.253,310.467,469.187,270.36,508.44z"/>
	<rect x="246.467" y="246.467" width="17.067" height="256"/>
	<path d="M483.693,383H374.467v-8.533C374.467,308.76,320.707,255,255,255s-119.467,53.76-119.467,119.467V383H26.307
		C10.947,383-1,371.053-1,355.693V101.4h512v254.293C511,371.053,499.053,383,483.693,383z M391.533,365.933h92.16
		c5.973,0,10.24-4.267,10.24-10.24V118.467H16.067v237.227c0,5.973,4.267,10.24,10.24,10.24h92.16c4.267-71.68,64-128,136.533-128
		S387.267,294.253,391.533,365.933z"/>
	<rect x="127" y="365.933" width="256" height="17.067"/>
	<rect x="144.067" y="306.2" width="221.867" height="17.067"/>
	<rect x="144.067" y="425.667" width="221.867" height="17.067"/>
</g>
</svg>