<?xml version="1.0" encoding="iso-8859-1"?>
<!-- Uploaded to: SVG Repo, www.svgrepo.com, Generator: SVG Repo Mixer Tools -->
<svg height="800px" width="800px" version="1.1" id="Layer_1" xmlns="http://www.w3.org/2000/svg" xmlns:xlink="http://www.w3.org/1999/xlink" 
	 viewBox="0 0 511.999 511.999" xml:space="preserve">
<path style="fill:#415E72;" d="M19.688,262.7h23.438v-81.72H19.688C8.815,180.979,0,189.794,0,200.667v42.345
	C0,253.885,8.815,262.7,19.688,262.7z"/>
<path style="fill:#FF6F52;" d="M275.838,333.989l15.857,54.187c3.865,13.233-6.053,26.466-19.835,26.466h-30.232l-47.301-47.301
	l-9.219-83.887"/>
<path style="fill:#415E72;" d="M223.645,331.141l42.699,145.914c3.872,13.229-6.049,26.466-19.831,26.466h-56.815
	c-9.176,0-17.254-6.053-19.831-14.86l-56.597-198.861"/>
<path style="fill:#314A5F;" d="M190.528,488.662l-54.13-190.199l-23.127-8.662l56.595,198.86c2.578,8.807,10.655,14.86,19.831,14.86
	h20.662C201.182,503.522,193.104,497.469,190.528,488.662z"/>
<path style="fill:#FCD577;" d="M461.114,426.115L461.114,426.115c-59.744-56.829-139.044-88.52-221.497-88.52H111.562
	c-41.362,0-74.894-33.532-74.894-74.894v-90.809c0-41.362,33.532-74.894,74.894-74.894h128.054
	c82.455,0,161.755-31.693,221.497-88.52l0,0V426.115z"/>
<path style="fill:#EAC36E;" d="M89.831,262.7v-90.809c0-41.362,33.53-74.894,74.894-74.894h-53.163
	c-41.362,0-74.894,33.53-74.894,74.894V262.7c0,41.362,33.53,74.894,74.894,74.894h53.162
	C123.361,337.593,89.831,304.063,89.831,262.7z"/>
<path style="fill:#FCD577;" d="M454.652,148.341c33.223,10.37,57.347,41.378,57.347,78.029s-24.124,67.66-57.347,78.029"/>
<path style="fill:#FF6F52;" d="M461.114,8.478v417.643c-15.913-15.137-33.21-28.498-51.591-39.939V48.418
	C427.905,36.976,445.2,23.616,461.114,8.478z"/>
</svg>