<?xml version="1.0" encoding="iso-8859-1"?>
<!-- Uploaded to: SVG Repo, www.svgrepo.com, Generator: SVG Repo Mixer Tools -->
<svg version="1.1" id="Layer_1" xmlns="http://www.w3.org/2000/svg" xmlns:xlink="http://www.w3.org/1999/xlink" 
	 viewBox="0 0 512 512" xml:space="preserve">
<rect x="81.814" y="187.381" style="fill:#FFD311;" width="348.371" height="158.351"/>
<path style="fill:#AFB6BB;" d="M467.134,387.959v47.505H256H44.866v-47.505V150.433H256h211.134V387.959z M430.186,345.732V187.381
	H81.814v158.351H430.186z"/>
<polygon style="fill:#E7ECED;" points="504.082,113.485 504.082,472.412 256,472.412 256,435.464 467.134,435.464 467.134,387.959 
	467.134,150.433 256,150.433 256,113.485 "/>
<rect x="256" y="39.588" style="fill:#546A79;" width="248.082" height="73.897"/>
<polygon style="fill:#CCD1D2;" points="256,435.464 256,472.412 7.918,472.412 7.918,113.485 256,113.485 256,150.433 
	44.866,150.433 44.866,387.959 44.866,435.464 "/>
<rect x="7.918" y="39.588" style="fill:#4C606E;" width="248.082" height="73.897"/>
<polygon style="fill:#9EA5AA;" points="81.814,345.732 81.814,187.381 256,187.381 256,150.433 44.866,150.433 44.866,387.959 
	44.866,435.464 256,435.464 256,345.732 "/>
<rect x="81.814" y="187.381" style="fill:#FBBF1A;" width="348.371" height="79.175"/>
<g>
	<rect x="39.588" y="68.619" style="fill:#FFFFFF;" width="21.113" height="15.835"/>
	<rect x="71.258" y="68.619" style="fill:#FFFFFF;" width="21.113" height="15.835"/>
	<rect x="451.299" y="68.619" style="fill:#FFFFFF;" width="21.113" height="15.835"/>
</g>
<path d="M0,31.67v448.66h512V31.67H0z M496.165,47.505v58.062H15.835V47.505H496.165z M15.835,464.495V121.402h480.33v343.093
	H15.835z"/>
<path d="M36.948,443.381h438.103V142.515H36.948V443.381z M52.784,158.351h406.433v269.196H52.784V158.351z"/>
<path d="M73.897,353.65h364.206V179.464H73.897V353.65z M89.732,195.299h332.536v142.515H89.732V195.299z"/>
<g>
	<polygon style="fill:#FFFFFF;" points="372.445,293.268 361.246,282.072 376.762,266.557 361.246,251.042 372.445,239.845 
		399.155,266.557 	"/>
	<polygon style="fill:#FFFFFF;" points="139.556,293.268 112.845,266.557 139.556,239.845 150.753,251.042 135.238,266.557 
		150.753,282.072 	"/>
	<rect x="245.443" y="300.866" style="fill:#FFFFFF;" width="21.113" height="15.835"/>
	<rect x="277.113" y="300.866" style="fill:#FFFFFF;" width="21.113" height="15.835"/>
	<rect x="213.773" y="300.866" style="fill:#FFFFFF;" width="21.113" height="15.835"/>
	<rect x="76.536" y="380.041" style="fill:#FFFFFF;" width="269.196" height="15.835"/>
	<rect x="419.629" y="380.041" style="fill:#FFFFFF;" width="21.113" height="15.835"/>
	<rect x="377.402" y="380.041" style="fill:#FFFFFF;" width="21.113" height="15.835"/>
</g>
</svg>