<?xml version="1.0" encoding="iso-8859-1"?>
<!-- Uploaded to: SVG Repo, www.svgrepo.com, Generator: SVG Repo Mixer Tools -->
<svg version="1.1" id="Layer_1" xmlns="http://www.w3.org/2000/svg" xmlns:xlink="http://www.w3.org/1999/xlink" 
	 viewBox="0 0 512 512" xml:space="preserve">
<rect x="182.103" y="446.021" style="fill:#E7ECED;" width="147.794" height="58.062"/>
<polygon style="fill:#7E8488;" points="372.124,398.515 372.124,446.021 329.897,446.021 182.103,446.021 139.876,446.021 
	139.876,398.515 166.268,398.515 345.732,398.515 "/>
<path style="fill:#E7ECED;" d="M256,256c17.524,0,31.67,14.146,31.67,31.67c0,17.524-14.146,31.67-31.67,31.67
	s-31.67-14.146-31.67-31.67C224.33,270.146,238.476,256,256,256z"/>
<path style="fill:#AFB6BB;" d="M256,256c-17.524,0-31.67,14.146-31.67,31.67c0,17.524,14.146,31.67,31.67,31.67
	s31.67-14.146,31.67-31.67C287.67,270.146,273.524,256,256,256z M256,81.814l110.845,263.918l-21.113,52.784H166.268l-21.113-52.784
	L256,81.814z"/>
<g>
	<rect x="424.907" y="7.918" style="fill:#36C63F;" width="52.784" height="52.784"/>
	<rect x="34.309" y="7.918" style="fill:#36C63F;" width="52.784" height="52.784"/>
</g>
<rect x="182.103" y="446.021" style="fill:#D4D8DA;" width="73.897" height="58.062"/>
<polygon style="fill:#6F7478;" points="256,398.515 166.268,398.515 139.876,398.515 139.876,446.021 182.103,446.021 256,446.021 
	"/>
<path style="fill:#949BA0;" d="M256,319.34c-17.524,0-31.67-14.146-31.67-31.67c0-17.524,14.146-31.67,31.67-31.67V81.814
	L145.155,345.732l21.113,52.784H256V319.34z"/>
<path d="M375.402,345.659L256,61.368L136.597,345.659l17.976,44.939h-22.615v63.34h42.227V512h163.629v-58.062h42.227v-63.34
	h-22.615L375.402,345.659z M256,263.918c13.098,0,23.753,10.655,23.753,23.753S269.098,311.423,256,311.423
	c-13.098,0-23.753-10.655-23.753-23.753S242.902,263.918,256,263.918z M153.711,345.805l94.372-224.693v127.767
	c-18.048,3.678-31.67,19.673-31.67,38.791c0,21.829,17.758,39.588,39.588,39.588s39.588-17.758,39.588-39.588
	c0-19.118-13.622-35.113-31.67-38.791V121.112l94.372,224.693l-17.918,44.793H171.629L153.711,345.805z M321.979,496.165H190.021
	v-42.227h131.959V496.165z M364.206,438.103H147.794v-31.67h216.412V438.103z"/>
<rect x="245.443" y="26.392" width="21.113" height="15.835"/>
<rect x="287.67" y="26.392" width="21.113" height="15.835"/>
<rect x="329.897" y="26.392" width="21.113" height="15.835"/>
<rect x="372.124" y="26.392" width="21.113" height="15.835"/>
<rect x="203.217" y="26.392" width="21.113" height="15.835"/>
<rect x="160.99" y="26.392" width="21.113" height="15.835"/>
<rect x="118.763" y="26.392" width="21.113" height="15.835"/>
<path d="M416.99,0v68.619h68.619V0H416.99z M469.773,52.784h-36.948V15.835h36.948V52.784z"/>
<path d="M26.392,68.619H95.01V0H26.392V68.619z M42.227,15.835h36.948v36.948H42.227V15.835z"/>
<rect x="192.66" y="353.65" style="fill:#FFFFFF;" width="126.68" height="15.835"/>
</svg>