<?xml version="1.0" encoding="iso-8859-1"?>
<!-- Uploaded to: SVG Repo, www.svgrepo.com, Generator: SVG Repo Mixer Tools -->
<svg version="1.1" id="Layer_1" xmlns="http://www.w3.org/2000/svg" xmlns:xlink="http://www.w3.org/1999/xlink" 
	 viewBox="0 0 512 512" xml:space="preserve">
<path style="fill:#009FD3;" d="M256,250.722c23.33,0,42.227,18.896,42.227,42.227S279.33,335.175,256,335.175
	s-42.227-18.896-42.227-42.227S232.67,250.722,256,250.722z"/>
<path style="fill:#E7ECED;" d="M256,208.495c73.897,0,137.237,84.454,137.237,84.454S329.897,377.402,256,377.402
	s-137.237-84.454-137.237-84.454S182.103,208.495,256,208.495z M298.227,292.948c0-23.33-18.896-42.227-42.227-42.227
	s-42.227,18.896-42.227,42.227S232.67,335.175,256,335.175S298.227,316.279,298.227,292.948z"/>
<path style="fill:#FFD311;" d="M467.134,435.464H256H44.866V150.433H256h211.134V435.464z M393.237,292.948
	c0,0-63.34-84.454-137.237-84.454s-137.237,84.454-137.237,84.454s63.34,84.454,137.237,84.454S393.237,292.948,393.237,292.948z"/>
<polygon style="fill:#E7ECED;" points="504.082,113.485 504.082,472.412 256,472.412 256,435.464 467.134,435.464 467.134,150.433 
	256,150.433 256,113.485 "/>
<rect x="256" y="39.588" style="fill:#546A79;" width="248.082" height="73.897"/>
<rect x="7.918" y="39.588" style="fill:#455865;" width="248.082" height="73.897"/>
<polygon style="fill:#CCD1D2;" points="44.866,435.464 256,435.464 256,472.412 7.918,472.412 7.918,113.485 256,113.485 
	256,150.433 44.866,150.433 "/>
<path style="fill:#D7DCDD;" d="M256,335.175c-23.33,0-42.227-18.896-42.227-42.227h-95.01c0,0,63.34,84.454,137.237,84.454
	s137.237-84.454,137.237-84.454h-95.01C298.227,316.279,279.33,335.175,256,335.175z"/>
<path style="fill:#FBC319;" d="M393.237,292.948c0,0-63.34,84.454-137.237,84.454s-137.237-84.454-137.237-84.454H44.866v142.515
	H256h211.134V292.948H393.237z"/>
<path style="fill:#008BC8;" d="M244.399,252.537c-17.644,5.063-30.626,21.132-30.626,40.411c0,23.33,18.896,42.227,42.227,42.227
	c13.357,0,25.118-6.316,32.854-15.991C268.947,301.171,253.543,278.378,244.399,252.537z"/>
<g>
	<rect x="39.588" y="68.619" style="fill:#FFFFFF;" width="21.113" height="15.835"/>
	<rect x="71.258" y="68.619" style="fill:#FFFFFF;" width="21.113" height="15.835"/>
	<rect x="451.299" y="68.619" style="fill:#FFFFFF;" width="21.113" height="15.835"/>
</g>
<path d="M0,31.67v448.66h512V31.67H0z M496.165,47.505v58.062H15.835V47.505H496.165z M15.835,464.495V121.402h480.33v343.093
	H15.835z"/>
<path d="M36.948,443.381h438.103V142.515H36.948V443.381z M52.784,158.351h406.433v269.196H52.784V158.351z"/>
<path d="M357.43,244.665c-34.25-28.843-69.325-44.088-101.43-44.088s-67.18,15.245-101.43,44.088
	c-25.471,21.449-41.473,42.641-42.141,43.533l-3.563,4.751l3.563,4.751c0.668,0.892,16.67,22.084,42.141,43.533
	c34.25,28.843,69.325,44.088,101.43,44.088s67.18-15.245,101.43-44.088c25.47-21.449,41.473-42.642,42.141-43.533l3.563-4.751
	l-3.563-4.751C398.903,287.306,382.9,266.114,357.43,244.665z M256,369.485c-59.169,0-112.654-59.153-127.091-76.54
	c14.428-17.402,67.827-76.532,127.091-76.532c59.165,0,112.647,59.147,127.091,76.54C368.663,310.354,315.264,369.485,256,369.485z"
	/>
<path d="M256,242.804c-27.649,0-50.144,22.495-50.144,50.144s22.495,50.144,50.144,50.144c27.649,0,50.144-22.495,50.144-50.144
	C306.144,265.299,283.649,242.804,256,242.804z M256,327.258c-18.918,0-34.309-15.391-34.309-34.309
	c0-18.919,15.392-34.309,34.309-34.309c18.918,0,34.309,15.391,34.309,34.309C290.309,311.867,274.918,327.258,256,327.258z"/>
<g>
	<rect x="240.165" y="285.031" style="fill:#FFFFFF;" width="31.67" height="15.835"/>
	<rect x="71.258" y="179.464" style="fill:#FFFFFF;" width="21.113" height="15.835"/>
	<rect x="71.258" y="390.598" style="fill:#FFFFFF;" width="21.113" height="15.835"/>
	<rect x="419.629" y="390.598" style="fill:#FFFFFF;" width="21.113" height="15.835"/>
	<rect x="419.629" y="179.464" style="fill:#FFFFFF;" width="21.113" height="15.835"/>
</g>
</svg>